<svg width="971" height="297" viewBox="0 0 971 297" fill="none" xmlns="http://www.w3.org/2000/svg">
<line x1="425.5" y1="3" x2="545.5" y2="3" stroke="#F2CB05" stroke-width="6"/>
<path d="M144.284 71.8182H118.648C118.466 69.697 117.981 67.7727 117.193 66.0455C116.436 64.3182 115.375 62.8333 114.011 61.5909C112.678 60.3182 111.057 59.3485 109.148 58.6818C107.239 57.9848 105.072 57.6364 102.648 57.6364C98.4053 57.6364 94.8144 58.6667 91.875 60.7273C88.9659 62.7879 86.7538 65.7424 85.2386 69.5909C83.7538 73.4394 83.0114 78.0606 83.0114 83.4545C83.0114 89.1515 83.7689 93.9242 85.2841 97.7727C86.8295 101.591 89.0568 104.47 91.9659 106.409C94.875 108.318 98.375 109.273 102.466 109.273C104.799 109.273 106.89 108.985 108.739 108.409C110.587 107.803 112.193 106.939 113.557 105.818C114.92 104.697 116.027 103.348 116.875 101.773C117.754 100.167 118.345 98.3636 118.648 96.3636L144.284 96.5455C143.981 100.485 142.875 104.5 140.966 108.591C139.057 112.652 136.345 116.409 132.83 119.864C129.345 123.288 125.027 126.045 119.875 128.136C114.723 130.227 108.739 131.273 101.92 131.273C93.375 131.273 85.7083 129.439 78.9205 125.773C72.1629 122.106 66.8144 116.712 62.875 109.591C58.9659 102.47 57.0114 93.7576 57.0114 83.4545C57.0114 73.0909 59.0114 64.3636 63.0114 57.2727C67.0114 50.1515 72.4053 44.7727 79.1932 41.1364C85.9811 37.4697 93.5568 35.6364 101.92 35.6364C107.799 35.6364 113.208 36.4394 118.148 38.0454C123.087 39.6515 127.42 42 131.148 45.0909C134.875 48.1515 137.875 51.9242 140.148 56.4091C142.42 60.8939 143.799 66.0303 144.284 71.8182ZM245.932 83.4545C245.932 93.8182 243.917 102.561 239.886 109.682C235.856 116.773 230.417 122.152 223.568 125.818C216.72 129.455 209.083 131.273 200.659 131.273C192.174 131.273 184.508 129.439 177.659 125.773C170.841 122.076 165.417 116.682 161.386 109.591C157.386 102.47 155.386 93.7576 155.386 83.4545C155.386 73.0909 157.386 64.3636 161.386 57.2727C165.417 50.1515 170.841 44.7727 177.659 41.1364C184.508 37.4697 192.174 35.6364 200.659 35.6364C209.083 35.6364 216.72 37.4697 223.568 41.1364C230.417 44.7727 235.856 50.1515 239.886 57.2727C243.917 64.3636 245.932 73.0909 245.932 83.4545ZM219.932 83.4545C219.932 77.8788 219.189 73.1818 217.705 69.3636C216.25 65.5151 214.083 62.6061 211.205 60.6364C208.356 58.6364 204.841 57.6364 200.659 57.6364C196.477 57.6364 192.947 58.6364 190.068 60.6364C187.22 62.6061 185.053 65.5151 183.568 69.3636C182.114 73.1818 181.386 77.8788 181.386 83.4545C181.386 89.0303 182.114 93.7424 183.568 97.5909C185.053 101.409 187.22 104.318 190.068 106.318C192.947 108.288 196.477 109.273 200.659 109.273C204.841 109.273 208.356 108.288 211.205 106.318C214.083 104.318 216.25 101.409 217.705 97.5909C219.189 93.7424 219.932 89.0303 219.932 83.4545ZM257.625 36.9091H289.08L310.716 89.6364H311.807L333.443 36.9091H364.898V130H340.17V76.1818H339.443L318.716 129.273H303.807L283.08 75.8182H282.352V130H257.625V36.9091ZM401.057 130H373.784L404.511 36.9091H439.057L469.784 130H442.511L422.148 62.5455H421.42L401.057 130ZM395.966 93.2727H447.239V112.182H395.966V93.2727ZM591.159 71.8182H565.523C565.341 69.697 564.856 67.7727 564.068 66.0455C563.311 64.3182 562.25 62.8333 560.886 61.5909C559.553 60.3182 557.932 59.3485 556.023 58.6818C554.114 57.9848 551.947 57.6364 549.523 57.6364C545.28 57.6364 541.689 58.6667 538.75 60.7273C535.841 62.7879 533.629 65.7424 532.114 69.5909C530.629 73.4394 529.886 78.0606 529.886 83.4545C529.886 89.1515 530.644 93.9242 532.159 97.7727C533.705 101.591 535.932 104.47 538.841 106.409C541.75 108.318 545.25 109.273 549.341 109.273C551.674 109.273 553.765 108.985 555.614 108.409C557.462 107.803 559.068 106.939 560.432 105.818C561.795 104.697 562.902 103.348 563.75 101.773C564.629 100.167 565.22 98.3636 565.523 96.3636L591.159 96.5455C590.856 100.485 589.75 104.5 587.841 108.591C585.932 112.652 583.22 116.409 579.705 119.864C576.22 123.288 571.902 126.045 566.75 128.136C561.598 130.227 555.614 131.273 548.795 131.273C540.25 131.273 532.583 129.439 525.795 125.773C519.038 122.106 513.689 116.712 509.75 109.591C505.841 102.47 503.886 93.7576 503.886 83.4545C503.886 73.0909 505.886 64.3636 509.886 57.2727C513.886 50.1515 519.28 44.7727 526.068 41.1364C532.856 37.4697 540.432 35.6364 548.795 35.6364C554.674 35.6364 560.083 36.4394 565.023 38.0454C569.962 39.6515 574.295 42 578.023 45.0909C581.75 48.1515 584.75 51.9242 587.023 56.4091C589.295 60.8939 590.674 66.0303 591.159 71.8182ZM692.807 83.4545C692.807 93.8182 690.792 102.561 686.761 109.682C682.731 116.773 677.292 122.152 670.443 125.818C663.595 129.455 655.958 131.273 647.534 131.273C639.049 131.273 631.383 129.439 624.534 125.773C617.716 122.076 612.292 116.682 608.261 109.591C604.261 102.47 602.261 93.7576 602.261 83.4545C602.261 73.0909 604.261 64.3636 608.261 57.2727C612.292 50.1515 617.716 44.7727 624.534 41.1364C631.383 37.4697 639.049 35.6364 647.534 35.6364C655.958 35.6364 663.595 37.4697 670.443 41.1364C677.292 44.7727 682.731 50.1515 686.761 57.2727C690.792 64.3636 692.807 73.0909 692.807 83.4545ZM666.807 83.4545C666.807 77.8788 666.064 73.1818 664.58 69.3636C663.125 65.5151 660.958 62.6061 658.08 60.6364C655.231 58.6364 651.716 57.6364 647.534 57.6364C643.352 57.6364 639.822 58.6364 636.943 60.6364C634.095 62.6061 631.928 65.5151 630.443 69.3636C628.989 73.1818 628.261 77.8788 628.261 83.4545C628.261 89.0303 628.989 93.7424 630.443 97.5909C631.928 101.409 634.095 104.318 636.943 106.318C639.822 108.288 643.352 109.273 647.534 109.273C651.716 109.273 655.231 108.288 658.08 106.318C660.958 104.318 663.125 101.409 664.58 97.5909C666.064 93.7424 666.807 89.0303 666.807 83.4545ZM704.5 36.9091H735.955L757.591 89.6364H758.682L780.318 36.9091H811.773V130H787.045V76.1818H786.318L765.591 129.273H750.682L729.955 75.8182H729.227V130H704.5V36.9091ZM913.932 83.4545C913.932 93.8182 911.917 102.561 907.886 109.682C903.856 116.773 898.417 122.152 891.568 125.818C884.72 129.455 877.083 131.273 868.659 131.273C860.174 131.273 852.508 129.439 845.659 125.773C838.841 122.076 833.417 116.682 829.386 109.591C825.386 102.47 823.386 93.7576 823.386 83.4545C823.386 73.0909 825.386 64.3636 829.386 57.2727C833.417 50.1515 838.841 44.7727 845.659 41.1364C852.508 37.4697 860.174 35.6364 868.659 35.6364C877.083 35.6364 884.72 37.4697 891.568 41.1364C898.417 44.7727 903.856 50.1515 907.886 57.2727C911.917 64.3636 913.932 73.0909 913.932 83.4545ZM887.932 83.4545C887.932 77.8788 887.189 73.1818 885.705 69.3636C884.25 65.5151 882.083 62.6061 879.205 60.6364C876.356 58.6364 872.841 57.6364 868.659 57.6364C864.477 57.6364 860.947 58.6364 858.068 60.6364C855.22 62.6061 853.053 65.5151 851.568 69.3636C850.114 73.1818 849.386 77.8788 849.386 83.4545C849.386 89.0303 850.114 93.7424 851.568 97.5909C853.053 101.409 855.22 104.318 858.068 106.318C860.947 108.288 864.477 109.273 868.659 109.273C872.841 109.273 876.356 108.288 879.205 106.318C882.083 104.318 884.25 101.409 885.705 97.5909C887.189 93.7424 887.932 89.0303 887.932 83.4545ZM252.466 191.909H277.739V251.545C277.739 258.636 276.042 264.773 272.648 269.955C269.284 275.106 264.587 279.091 258.557 281.909C252.527 284.697 245.527 286.091 237.557 286.091C229.527 286.091 222.496 284.697 216.466 281.909C210.436 279.091 205.739 275.106 202.375 269.955C199.042 264.773 197.375 258.636 197.375 251.545V191.909H222.648V249.364C222.648 252.242 223.284 254.818 224.557 257.091C225.83 259.333 227.587 261.091 229.83 262.364C232.102 263.636 234.678 264.273 237.557 264.273C240.466 264.273 243.042 263.636 245.284 262.364C247.527 261.091 249.284 259.333 250.557 257.091C251.83 254.818 252.466 252.242 252.466 249.364V191.909ZM289.75 191.909H321.205L342.841 244.636H343.932L365.568 191.909H397.023V285H372.295V231.182H371.568L350.841 284.273H335.932L315.205 230.818H314.477V285H289.75V191.909Z" fill="#E2E2E2"/>
<path d="M470.318 285H434.5V191.909H469.955C479.53 191.909 487.803 193.773 494.773 197.5C501.773 201.197 507.167 206.53 510.955 213.5C514.773 220.439 516.682 228.758 516.682 238.455C516.682 248.152 514.788 256.485 511 263.455C507.212 270.394 501.848 275.727 494.909 279.455C487.97 283.152 479.773 285 470.318 285ZM459.773 263.545H469.409C474.015 263.545 477.939 262.803 481.182 261.318C484.455 259.833 486.939 257.273 488.636 253.636C490.364 250 491.227 244.939 491.227 238.455C491.227 231.97 490.348 226.909 488.591 223.273C486.864 219.636 484.318 217.076 480.955 215.591C477.621 214.106 473.53 213.364 468.682 213.364H459.773V263.545ZM528.375 285V191.909H595.466V212.273H553.648V228.273H592.011V248.636H553.648V264.636H595.284V285H528.375ZM663.091 191.909H688.364V251.545C688.364 258.636 686.667 264.773 683.273 269.955C679.909 275.106 675.212 279.091 669.182 281.909C663.152 284.697 656.152 286.091 648.182 286.091C640.152 286.091 633.121 284.697 627.091 281.909C621.061 279.091 616.364 275.106 613 269.955C609.667 264.773 608 258.636 608 251.545V191.909H633.273V249.364C633.273 252.242 633.909 254.818 635.182 257.091C636.455 259.333 638.212 261.091 640.455 262.364C642.727 263.636 645.303 264.273 648.182 264.273C651.091 264.273 653.667 263.636 655.909 262.364C658.152 261.091 659.909 259.333 661.182 257.091C662.455 254.818 663.091 252.242 663.091 249.364V191.909ZM750.557 221C750.314 217.97 749.178 215.606 747.148 213.909C745.148 212.212 742.102 211.364 738.011 211.364C735.405 211.364 733.269 211.682 731.602 212.318C729.966 212.924 728.754 213.758 727.966 214.818C727.178 215.879 726.769 217.091 726.739 218.455C726.678 219.576 726.875 220.591 727.33 221.5C727.814 222.379 728.572 223.182 729.602 223.909C730.633 224.606 731.951 225.242 733.557 225.818C735.163 226.394 737.072 226.909 739.284 227.364L746.92 229C752.072 230.091 756.481 231.53 760.148 233.318C763.814 235.106 766.814 237.212 769.148 239.636C771.481 242.03 773.193 244.727 774.284 247.727C775.405 250.727 775.981 254 776.011 257.545C775.981 263.667 774.451 268.848 771.42 273.091C768.39 277.333 764.057 280.561 758.42 282.773C752.814 284.985 746.072 286.091 738.193 286.091C730.102 286.091 723.042 284.894 717.011 282.5C711.011 280.106 706.345 276.424 703.011 271.455C699.708 266.455 698.042 260.061 698.011 252.273H722.011C722.163 255.121 722.875 257.515 724.148 259.455C725.42 261.394 727.208 262.864 729.511 263.864C731.845 264.864 734.617 265.364 737.83 265.364C740.527 265.364 742.784 265.03 744.602 264.364C746.42 263.697 747.799 262.773 748.739 261.591C749.678 260.409 750.163 259.061 750.193 257.545C750.163 256.121 749.693 254.879 748.784 253.818C747.905 252.727 746.451 251.758 744.42 250.909C742.39 250.03 739.648 249.212 736.193 248.455L726.92 246.455C718.678 244.667 712.178 241.682 707.42 237.5C702.693 233.288 700.345 227.545 700.375 220.273C700.345 214.364 701.92 209.197 705.102 204.773C708.314 200.318 712.754 196.848 718.42 194.364C724.117 191.879 730.648 190.636 738.011 190.636C745.527 190.636 752.027 191.894 757.511 194.409C762.996 196.924 767.223 200.47 770.193 205.045C773.193 209.591 774.708 214.909 774.739 221H750.557Z" fill="url(#paint0_linear_44_2)"/>
<defs>
<linearGradient id="paint0_linear_44_2" x1="590" y1="178" x2="592.5" y2="303" gradientUnits="userSpaceOnUse">
<stop stop-color="#F2CB05"/>
<stop offset="1" stop-color="#A65D03"/>
</linearGradient>
</defs>
</svg>
