<svg width="50" height="50" viewBox="0 0 100 100" fill="none" xmlns="http://www.w3.org/2000/svg">
<path d="M0.78716 81.2459C0.627016 81.2461 0.47078 81.1964 0.340089 81.1039C0.255992 81.0451 0.184301 80.9704 0.12912 80.8839C0.0739378 80.7974 0.0363468 80.7009 0.018497 80.5999C0.000647073 80.4989 0.00288848 80.3953 0.025093 80.2952C0.0472975 80.195 0.0890294 80.1002 0.147902 80.0162L22.02 48.7703C22.0788 48.6863 22.1537 48.6148 22.2402 48.5597C22.3268 48.5047 22.4233 48.4673 22.5243 48.4496C22.6253 48.4319 22.7288 48.4342 22.8289 48.4566C22.929 48.4789 23.0237 48.5207 23.1077 48.5797C23.1918 48.6384 23.2635 48.7132 23.3186 48.7997C23.3738 48.8861 23.4114 48.9827 23.4293 49.0837C23.4471 49.1847 23.4449 49.2882 23.4227 49.3884C23.4005 49.4886 23.3587 49.5834 23.2999 49.6674L1.42798 80.9133C1.35584 81.0162 1.2599 81.1002 1.14833 81.1581C1.03676 81.216 0.912861 81.2461 0.78716 81.2459ZM14.8479 98.4312C14.6922 98.4316 14.5401 98.3848 14.4116 98.2969C14.3266 98.2396 14.2537 98.1661 14.1971 98.0807C14.1405 97.9953 14.1014 97.8995 14.0818 97.7989C14.0622 97.6983 14.0627 97.5948 14.0832 97.4944C14.1036 97.394 14.1437 97.2986 14.201 97.2137L56.3833 34.7217C56.6272 34.3617 57.1155 34.2685 57.4665 34.5111C57.5516 34.5682 57.6247 34.6416 57.6814 34.727C57.7381 34.8125 57.7774 34.9083 57.7969 35.009C57.8165 35.1096 57.8159 35.2132 57.7953 35.3136C57.7747 35.4141 57.7344 35.5095 57.6768 35.5943L15.4961 98.0863C15.4248 98.1927 15.3283 98.2798 15.2152 98.3399C15.1021 98.4001 14.976 98.4314 14.8479 98.4312Z" fill="#F22248"/>
<path d="M99.2119 98.4313C99.084 98.4314 98.9581 98.3999 98.8453 98.3398C98.7324 98.2796 98.6362 98.1926 98.565 98.0863L56.3832 35.5945C56.3256 35.5097 56.2853 35.4143 56.2647 35.3138C56.2441 35.2134 56.2435 35.1099 56.2631 35.0092C56.2826 34.9085 56.3219 34.8127 56.3786 34.7273C56.4353 34.6418 56.5084 34.5684 56.5935 34.5113C56.9461 34.2688 57.4344 34.3619 57.6767 34.7219L99.859 97.2139C99.9166 97.2987 99.9569 97.3941 99.9775 97.4946C99.9981 97.5951 99.9986 97.6986 99.9791 97.7993C99.9595 97.9 99.9202 97.9958 99.8635 98.0812C99.8067 98.1666 99.7336 98.24 99.6484 98.2971C99.5199 98.3851 99.3676 98.4319 99.2119 98.4313ZM33.5945 65.6199C33.4688 65.6202 33.3449 65.5901 33.2333 65.5321C33.1218 65.4742 33.0258 65.3902 32.9537 65.2873L22.0201 49.6674C21.9612 49.5834 21.9195 49.4886 21.8973 49.3884C21.8751 49.2883 21.8728 49.1847 21.8907 49.0837C21.9085 48.9827 21.9461 48.8862 22.0013 48.7997C22.0565 48.7132 22.1282 48.6384 22.2123 48.5797C22.2962 48.5207 22.3909 48.4789 22.491 48.4565C22.5911 48.4342 22.6946 48.4318 22.7956 48.4495C22.8967 48.4672 22.9932 48.5047 23.0798 48.5597C23.1663 48.6148 23.2411 48.6863 23.3 48.7703L34.2338 64.3902C34.2926 64.4743 34.3343 64.5691 34.3565 64.6692C34.3787 64.7694 34.3809 64.8729 34.3631 64.9739C34.3452 65.0749 34.3077 65.1714 34.2525 65.2579C34.1973 65.3444 34.1257 65.4192 34.0416 65.4779C33.9109 65.5705 33.7547 65.6202 33.5945 65.6199ZM85.1513 98.4313C85.0188 98.4314 84.8883 98.3977 84.7724 98.3334C84.6565 98.269 84.559 98.1761 84.489 98.0635L76.6806 85.5682C76.6263 85.4812 76.5896 85.3844 76.5726 85.2833C76.5557 85.1821 76.5589 85.0787 76.582 84.9787C76.6051 84.8788 76.6476 84.7844 76.7072 84.701C76.7668 84.6175 76.8423 84.5467 76.9293 84.4924C77.0162 84.4381 77.113 84.4014 77.2141 84.3845C77.3152 84.3676 77.4187 84.3708 77.5186 84.3939C77.6185 84.417 77.7128 84.4595 77.7962 84.5191C77.8797 84.5786 77.9506 84.6541 78.0049 84.741L85.8133 97.2365C85.8676 97.3235 85.9043 97.4203 85.9212 97.5214C85.9381 97.6225 85.9349 97.726 85.9118 97.8258C85.8887 97.9257 85.8462 98.0201 85.7866 98.1035C85.727 98.187 85.6516 98.2578 85.5646 98.3121C85.4409 98.3902 85.2976 98.4315 85.1513 98.4313ZM28.9084 98.4313C28.7691 98.4311 28.6323 98.3938 28.5123 98.323C28.3923 98.2522 28.2935 98.1506 28.226 98.0287C28.1585 97.9068 28.1249 97.7691 28.1286 97.6298C28.1323 97.4906 28.1732 97.3548 28.247 97.2367L36.057 84.7412C36.1112 84.654 36.182 84.5783 36.2655 84.5185C36.349 84.4587 36.4434 84.416 36.5435 84.3927C36.6435 84.3695 36.7471 84.3662 36.8484 84.383C36.9497 84.3999 37.0467 84.4366 37.1337 84.491C37.2208 84.5454 37.2963 84.6164 37.3559 84.7001C37.4155 84.7837 37.458 84.8783 37.481 84.9783C37.504 85.0784 37.507 85.182 37.4899 85.2833C37.4728 85.3845 37.4358 85.4814 37.3812 85.5684L29.5715 98.0637C29.5014 98.1763 29.4037 98.2692 29.2876 98.3335C29.1716 98.3979 29.0411 98.4315 28.9084 98.4313ZM55.4676 54.6867C55.3744 54.6867 55.2814 54.6699 55.1898 54.6348L48.9429 52.2547C48.8472 52.2183 48.7595 52.1633 48.6849 52.093C48.6104 52.0227 48.5504 51.9384 48.5085 51.8449C48.4666 51.7513 48.4435 51.6505 48.4405 51.5481C48.4376 51.4456 48.4549 51.3436 48.4914 51.2479C48.5274 51.1516 48.5822 51.0634 48.6525 50.9885C48.7229 50.9136 48.8074 50.8534 48.9012 50.8114C48.995 50.7693 49.0962 50.7464 49.199 50.7438C49.3017 50.7412 49.404 50.7591 49.4998 50.7963L55.7453 53.1766C55.8412 53.2128 55.9291 53.2676 56.0038 53.3379C56.0785 53.4081 56.1385 53.4925 56.1805 53.5861C56.2224 53.6796 56.2455 53.7806 56.2483 53.8831C56.2511 53.9856 56.2336 54.0877 56.1969 54.1834C56.141 54.3316 56.0413 54.4592 55.9109 54.5491C55.7806 54.6391 55.6259 54.6871 55.4676 54.6867Z" fill="#F22248"/>
<path d="M55.4676 54.6867C55.3226 54.6865 55.1805 54.6461 55.0571 54.5698C54.9337 54.4936 54.8339 54.3847 54.7688 54.2551C54.6764 54.0697 54.6613 53.8553 54.7268 53.6588C54.7923 53.4623 54.9331 53.2998 55.1182 53.207L61.3674 50.0824C61.4761 50.0287 61.5956 50.0005 61.7169 50H63.2792C63.3817 49.9999 63.4833 50.0201 63.5781 50.0593C63.6729 50.0986 63.759 50.1561 63.8316 50.2286C63.9041 50.3012 63.9616 50.3873 64.0009 50.4821C64.0401 50.5769 64.0603 50.6785 64.0602 50.781C64.0602 51.2129 63.7108 51.5623 63.2792 51.5623H61.9014L55.8171 54.6043C55.7086 54.6586 55.5889 54.6869 55.4676 54.6867ZM57.0299 32.8146C56.9273 32.8147 56.8257 32.7945 56.7309 32.7553C56.6361 32.716 56.55 32.6585 56.4775 32.5859C56.4049 32.5134 56.3474 32.4272 56.3082 32.3324C56.269 32.2376 56.2488 32.136 56.2489 32.0334V10.1613C56.2489 9.72948 56.5981 9.38007 57.0299 9.38007C57.4618 9.38007 57.811 9.72948 57.811 10.1613V32.0334C57.811 32.4654 57.4618 32.8146 57.0299 32.8146Z" fill="#F22248"/>
<path d="M72.6527 14.067H57.0298C56.9273 14.0671 56.8257 14.0469 56.7309 14.0077C56.6361 13.9684 56.55 13.9109 56.4774 13.8384C56.4049 13.7658 56.3474 13.6797 56.3081 13.5849C56.2689 13.4901 56.2487 13.3885 56.2488 13.2859C56.2488 12.8541 56.598 12.5047 57.0298 12.5047H72.6527C73.0845 12.5047 73.4339 12.8541 73.4339 13.2859C73.434 13.3886 73.4138 13.4902 73.3746 13.585C73.3353 13.6797 73.2778 13.7659 73.2052 13.8384C73.1327 13.911 73.0465 13.9685 72.9517 14.0077C72.8569 14.0469 72.7553 14.0671 72.6527 14.067ZM72.6527 18.7541H57.0298C56.598 18.7541 56.2488 18.4047 56.2488 17.9729C56.2488 17.541 56.598 17.1916 57.0298 17.1916H72.6527C73.0845 17.1916 73.4339 17.541 73.4339 17.9729C73.4339 18.4047 73.0845 18.7541 72.6527 18.7541Z" fill="#F22248"/>
<path d="M72.6527 18.7541C72.5501 18.7542 72.4485 18.734 72.3537 18.6947C72.2589 18.6555 72.1728 18.598 72.1002 18.5254C72.0277 18.4528 71.9702 18.3667 71.931 18.2719C71.8917 18.1771 71.8716 18.0755 71.8717 17.9729V13.2859C71.8717 12.8541 72.2211 12.5047 72.6527 12.5047C73.0845 12.5047 73.434 12.8541 73.434 13.2859V17.9729C73.434 18.4045 73.0845 18.7541 72.6527 18.7541ZM85.1513 18.7541H75.7773C75.3455 18.7541 74.9963 18.4047 74.9963 17.9729C74.9963 17.541 75.3455 17.1916 75.7773 17.1916H85.1511C85.583 17.1916 85.9322 17.541 85.9322 17.9729C85.9322 18.4047 85.5832 18.7541 85.1513 18.7541ZM85.1513 23.441H67.9662C67.5344 23.441 67.1849 23.0916 67.1849 22.6598C67.1849 22.5572 67.2051 22.4556 67.2443 22.3608C67.2835 22.266 67.3411 22.1798 67.4137 22.1073C67.4862 22.0348 67.5724 21.9772 67.6672 21.938C67.762 21.8988 67.8636 21.8786 67.9662 21.8787H85.1513C85.2539 21.8787 85.3555 21.8988 85.4503 21.9381C85.5451 21.9773 85.6312 22.0348 85.7037 22.1074C85.7763 22.1799 85.8338 22.266 85.873 22.3608C85.9123 22.4556 85.9324 22.5572 85.9324 22.6598C85.9324 23.0916 85.5832 23.441 85.1513 23.441Z" fill="#F22248"/>
<path d="M85.1514 23.441C84.9881 23.441 84.8233 23.3906 84.6831 23.2854L81.5585 20.9418C81.3616 20.7938 81.2456 20.5619 81.2456 20.3162C81.2456 20.0705 81.3616 19.8387 81.5585 19.6906L84.6831 17.3473C84.849 17.2231 85.0575 17.17 85.2627 17.1994C85.4678 17.2289 85.6529 17.3386 85.7772 17.5045C85.901 17.6706 85.9539 17.8789 85.9245 18.0839C85.895 18.2889 85.7855 18.4739 85.62 18.5984L83.3284 20.3164L85.62 22.0344C85.7855 22.1589 85.895 22.3439 85.9245 22.5489C85.9539 22.7539 85.901 22.9623 85.7772 23.1283C85.7042 23.2253 85.6097 23.3041 85.5011 23.3583C85.3925 23.4126 85.2728 23.4409 85.1514 23.441ZM67.9661 23.441C67.8115 23.4411 67.6604 23.3954 67.5319 23.3096C67.4034 23.2238 67.3032 23.1018 67.2441 22.959C67.1849 22.8162 67.1695 22.6591 67.1997 22.5076C67.2299 22.356 67.3044 22.2168 67.4137 22.1076L72.1006 17.4207C72.1732 17.3482 72.2593 17.2907 72.354 17.2514C72.4488 17.2122 72.5503 17.192 72.6529 17.192C72.7555 17.192 72.857 17.2122 72.9518 17.2514C73.0465 17.2907 73.1326 17.3482 73.2051 17.4207C73.2777 17.4932 73.3352 17.5793 73.3744 17.6741C73.4137 17.7688 73.4339 17.8704 73.4339 17.973C73.4339 18.0755 73.4137 18.1771 73.3744 18.2718C73.3352 18.3666 73.2777 18.4527 73.2051 18.5252L68.5182 23.2121C68.4458 23.2848 68.3598 23.3424 68.265 23.3817C68.1702 23.421 68.0686 23.4411 67.9661 23.441ZM22.66 62.6279C22.5702 62.6279 22.4809 62.6127 22.3946 62.5822L17.7077 60.8902C17.5128 60.8197 17.3539 60.6746 17.2659 60.487C17.178 60.2993 17.1681 60.0844 17.2385 59.8895C17.385 59.4852 17.8329 59.2762 18.2385 59.4195L22.66 61.017L27.0815 59.4195C27.4889 59.2764 27.936 59.4852 28.0817 59.8895C28.1521 60.0844 28.1423 60.2993 28.0543 60.487C27.9663 60.6746 27.8074 60.8197 27.6126 60.8902L22.9256 62.5822C22.8403 62.6125 22.7505 62.6279 22.66 62.6279ZM13.2864 20.3164C10.2715 20.3164 7.81821 17.8631 7.81821 14.8484C7.81821 11.8336 10.2715 9.38028 13.2864 9.38028C16.3012 9.38028 18.7543 11.8338 18.7543 14.8484C18.7543 17.8629 16.301 20.3164 13.2864 20.3164ZM13.2864 10.9424C11.1329 10.9424 9.38052 12.694 9.38052 14.8482C9.38052 17.0024 11.1329 18.7539 13.2864 18.7539C15.4397 18.7539 17.192 17.0024 17.192 14.8482C17.192 12.694 15.4397 10.9424 13.2864 10.9424ZM13.2864 7.81798C12.8545 7.81798 12.5051 7.46856 12.5051 7.03673V2.34981C12.5051 2.24721 12.5253 2.14561 12.5645 2.05081C12.6037 1.95601 12.6613 1.86988 12.7338 1.79734C12.8064 1.7248 12.8926 1.66727 12.9874 1.62805C13.0822 1.58883 13.1838 1.56868 13.2864 1.56876C13.389 1.5687 13.4906 1.58887 13.5853 1.62811C13.6801 1.66734 13.7662 1.72487 13.8388 1.79741C13.9113 1.86995 13.9689 1.95607 14.0081 2.05085C14.0473 2.14564 14.0675 2.24723 14.0674 2.34981V7.03673C14.0674 7.46856 13.718 7.81798 13.2864 7.81798ZM13.2864 28.1279C12.8545 28.1279 12.5051 27.7785 12.5051 27.3467V22.6598C12.5051 22.5572 12.5253 22.4556 12.5645 22.3608C12.6037 22.266 12.6613 22.1798 12.7338 22.1073C12.8064 22.0348 12.8926 21.9772 12.9874 21.938C13.0822 21.8988 13.1838 21.8786 13.2864 21.8787C13.389 21.8787 13.4906 21.8988 13.5853 21.9381C13.6801 21.9773 13.7662 22.0348 13.8388 22.1074C13.9113 22.1799 13.9689 22.266 14.0081 22.3608C14.0473 22.4556 14.0675 22.5572 14.0674 22.6598V27.3467C14.0674 27.7785 13.718 28.1279 13.2864 28.1279ZM9.3813 8.86466C9.24405 8.86469 9.10921 8.82861 8.99032 8.76005C8.87143 8.69148 8.77267 8.59284 8.70396 8.47403L6.3604 4.41426C6.30907 4.32549 6.27575 4.22746 6.26234 4.1258C6.24894 4.02413 6.2557 3.92082 6.28226 3.82177C6.30882 3.72273 6.35465 3.62989 6.41712 3.54857C6.47959 3.46725 6.55748 3.39905 6.64634 3.34786C7.01861 3.12969 7.49693 3.25938 7.71353 3.63301L10.0571 7.69298C10.1084 7.78176 10.1418 7.87979 10.1552 7.98147C10.1686 8.08315 10.1618 8.18647 10.1352 8.28553C10.1086 8.38459 10.0628 8.47743 10.0003 8.55874C9.93777 8.64005 9.85984 8.70823 9.77095 8.75938C9.65275 8.82852 9.51824 8.86486 9.3813 8.86466ZM19.5362 26.4541C19.3989 26.4541 19.2641 26.4181 19.1452 26.3495C19.0263 26.2809 18.9275 26.1823 18.8588 26.0635L16.5153 22.0037C16.464 21.9149 16.4306 21.8169 16.4172 21.7153C16.4038 21.6136 16.4106 21.5103 16.4371 21.4112C16.4637 21.3122 16.5095 21.2193 16.572 21.138C16.6345 21.0567 16.7124 20.9885 16.8012 20.9373C17.1735 20.7176 17.6518 20.8488 17.8684 21.2225L20.212 25.2824C20.2633 25.3712 20.2966 25.4692 20.3101 25.5709C20.3235 25.6726 20.3167 25.7759 20.2901 25.875C20.2635 25.974 20.2177 26.0669 20.1552 26.1482C20.0927 26.2295 20.0147 26.2977 19.9258 26.3488C19.8076 26.418 19.6731 26.4543 19.5362 26.4541ZM6.52056 11.7236C6.38356 11.7238 6.249 11.6875 6.13071 11.6184L2.07095 9.27501C1.98207 9.22384 1.90416 9.15564 1.84167 9.07433C1.77919 8.99301 1.73335 8.90017 1.70679 8.80111C1.68023 8.70206 1.67347 8.59874 1.68689 8.49707C1.70031 8.39539 1.73366 8.29737 1.78501 8.2086C2.00083 7.83477 2.47915 7.70372 2.8522 7.92325L6.91196 10.2668C7.00084 10.318 7.07875 10.3862 7.14124 10.4675C7.20373 10.5488 7.24958 10.6416 7.27615 10.7407C7.30273 10.8397 7.30952 10.943 7.29612 11.0447C7.28273 11.1464 7.24942 11.2444 7.1981 11.3332C7.12936 11.452 7.03056 11.5507 6.91163 11.6192C6.7927 11.6877 6.65782 11.7237 6.52056 11.7236ZM24.1086 21.8787C23.9717 21.8789 23.8371 21.8426 23.7188 21.7734L19.6606 19.4299C19.5717 19.3787 19.4938 19.3106 19.4313 19.2292C19.3688 19.1479 19.3229 19.0551 19.2963 18.956C19.2698 18.857 19.263 18.7537 19.2764 18.652C19.2898 18.5503 19.3231 18.4523 19.3745 18.3635C19.5911 17.9897 20.067 17.8586 20.4417 18.0783L24.4999 20.4219C24.5887 20.4731 24.6666 20.5412 24.7291 20.6226C24.7916 20.7039 24.8375 20.7967 24.864 20.8958C24.8906 20.9948 24.8974 21.0981 24.884 21.1998C24.8706 21.3015 24.8373 21.3995 24.786 21.4883C24.7173 21.6071 24.6185 21.7057 24.4996 21.7742C24.3807 21.8428 24.2459 21.8788 24.1086 21.8787ZM0.787941 15.6309C0.582905 15.6276 0.387365 15.5439 0.243516 15.3978C0.0996666 15.2516 0.019043 15.0548 0.019043 14.8497C0.019043 14.6447 0.0996666 14.4478 0.243516 14.3017C0.387365 14.1555 0.582905 14.0718 0.787941 14.0686L5.47485 14.067C5.67989 14.0702 5.87543 14.154 6.01928 14.3001C6.16313 14.4462 6.24375 14.6431 6.24375 14.8482C6.24375 15.0532 6.16313 15.2501 6.01928 15.3962C5.87543 15.5423 5.67989 15.6261 5.47485 15.6293L0.787941 15.6309ZM25.7846 15.6309L21.0977 15.6293C20.8927 15.6261 20.6971 15.5423 20.5533 15.3962C20.4094 15.2501 20.3288 15.0532 20.3288 14.8482C20.3288 14.6431 20.4094 14.4462 20.5533 14.3001C20.6971 14.154 20.8927 14.0702 21.0977 14.067L25.7846 14.0686C25.9897 14.0718 26.1852 14.1555 26.329 14.3017C26.4729 14.4478 26.5535 14.6447 26.5535 14.8497C26.5535 15.0548 26.4729 15.2516 26.329 15.3978C26.1852 15.5439 25.9897 15.6276 25.7846 15.6309ZM2.46392 21.8801C2.32666 21.8802 2.19181 21.8441 2.07291 21.7755C1.95401 21.707 1.85525 21.6083 1.78657 21.4895C1.73525 21.4007 1.70192 21.3027 1.68852 21.201C1.67511 21.0993 1.68188 20.996 1.70843 20.897C1.73499 20.7979 1.78082 20.7051 1.84329 20.6238C1.90576 20.5424 1.98365 20.4742 2.07251 20.4231L6.13091 18.0781C6.50239 17.8584 6.98228 17.9897 7.1981 18.3633C7.24944 18.4521 7.28277 18.5501 7.29618 18.6518C7.30959 18.7535 7.30281 18.8568 7.27623 18.9558C7.24965 19.0549 7.2038 19.1477 7.14129 19.229C7.07879 19.3104 7.00086 19.3785 6.91196 19.4297L2.85376 21.7746C2.73553 21.8439 2.60094 21.8803 2.46392 21.8801ZM20.052 11.7236C19.88 11.7236 19.7128 11.6668 19.5763 11.562C19.4398 11.4573 19.3417 11.3105 19.2971 11.1443C19.2526 10.9782 19.2641 10.802 19.3298 10.643C19.3955 10.484 19.5119 10.3512 19.6608 10.265L23.7206 7.92305C23.9002 7.81991 24.1134 7.79219 24.3134 7.84597C24.5135 7.89975 24.684 8.03065 24.7877 8.20997C24.8391 8.29875 24.8724 8.39678 24.8858 8.49846C24.8992 8.60014 24.8925 8.70347 24.8659 8.80252C24.8393 8.90158 24.7934 8.99442 24.7309 9.07573C24.6684 9.15704 24.5905 9.22522 24.5016 9.27637L20.4418 11.6199C20.3232 11.688 20.1888 11.7237 20.052 11.7236ZM7.03794 26.4541C6.90513 26.4541 6.77173 26.4205 6.6481 26.3488C6.55922 26.2977 6.48131 26.2295 6.41882 26.1482C6.35634 26.0668 6.3105 25.974 6.28394 25.8749C6.25738 25.7759 6.25062 25.6726 6.26404 25.5709C6.27746 25.4692 6.31081 25.3712 6.36216 25.2824L8.70415 21.2225C8.7551 21.1333 8.82324 21.0551 8.90462 20.9924C8.98599 20.9297 9.07899 20.8837 9.17824 20.8572C9.27749 20.8307 9.38101 20.8241 9.48281 20.8379C9.58462 20.8516 9.68268 20.8854 9.77134 20.9373C9.86023 20.9885 9.93816 21.0566 10.0007 21.138C10.0632 21.2193 10.109 21.3121 10.1356 21.4112C10.1622 21.5102 10.169 21.6135 10.1556 21.7152C10.1421 21.8169 10.1088 21.9149 10.0575 22.0037L7.71548 26.0635C7.64677 26.1823 7.54798 26.281 7.42905 26.3496C7.31011 26.4181 7.17523 26.4542 7.03794 26.4541ZM17.1913 8.86466C17.0584 8.86466 16.9243 8.83106 16.8014 8.75938C16.7126 8.70819 16.6347 8.63999 16.5722 8.55867C16.5097 8.47735 16.4639 8.38451 16.4373 8.28546C16.4108 8.18642 16.404 8.08311 16.4174 7.98144C16.4308 7.87977 16.4642 7.78175 16.5155 7.69298L18.8604 3.63458C19.0762 3.26075 19.5538 3.12969 19.9276 3.34942C20.0165 3.40057 20.0944 3.46876 20.1569 3.55007C20.2194 3.63138 20.2653 3.72422 20.2919 3.82327C20.3184 3.92233 20.3252 4.02565 20.3118 4.12733C20.2984 4.22901 20.2651 4.32705 20.2137 4.41583L17.8686 8.47403C17.7999 8.59288 17.7012 8.69155 17.5823 8.76013C17.4634 8.8287 17.3285 8.86475 17.1913 8.86466ZM35.1577 35.9408C34.9694 35.9406 34.7876 35.8725 34.6456 35.7489C34.5036 35.6253 34.411 35.4546 34.3848 35.2682C34.0438 32.8438 30.5073 32.8164 30.4715 32.8164C30.0397 32.8164 29.6903 32.467 29.6903 32.0352C29.6903 31.6033 30.0397 31.2539 30.4715 31.2539C32.1758 31.2539 35.5092 32.0473 35.9319 35.0514C35.9476 35.1621 35.9393 35.2749 35.9076 35.3822C35.8759 35.4894 35.8214 35.5886 35.748 35.673C35.6746 35.7574 35.5838 35.8249 35.482 35.8711C35.3801 35.9174 35.2695 35.9411 35.1577 35.9408Z" fill="#F22248"/>
<path d="M35.1584 35.9408C35.0707 35.9408 34.9814 35.9256 34.8943 35.8951C34.6994 35.825 34.5402 35.6804 34.4518 35.493C34.3634 35.3057 34.353 35.0909 34.4228 34.8959C35.2162 32.6867 39.1693 31.425 39.6172 31.2877C39.8152 31.2276 40.029 31.2485 40.2117 31.3457C40.3944 31.4429 40.5312 31.6086 40.592 31.8064C40.6525 32.0047 40.6319 32.219 40.5347 32.4021C40.4374 32.5852 40.2714 32.7222 40.0732 32.783C38.6695 33.2117 36.2933 34.3102 35.8935 35.424C35.8391 35.5754 35.7393 35.7062 35.6077 35.7987C35.4761 35.8912 35.3192 35.9408 35.1584 35.9408ZM11.724 42.1885C11.5588 42.1884 11.3978 42.136 11.2643 42.0386C11.1307 41.9413 11.0315 41.8041 10.9808 41.6469C10.5361 40.2721 8.94879 40.5713 8.76793 40.6078C8.3568 40.701 7.9318 40.4338 7.83883 40.0129C7.7937 39.8118 7.8302 39.601 7.94031 39.4269C8.05042 39.2527 8.22515 39.1293 8.42614 39.0838C9.5109 38.832 11.7529 38.9557 12.4668 41.168C12.4983 41.2655 12.5104 41.3683 12.5022 41.4704C12.494 41.5726 12.4657 41.6721 12.419 41.7634C12.3723 41.8546 12.3081 41.9358 12.2301 42.0022C12.152 42.0686 12.0616 42.1189 11.964 42.1504C11.8865 42.1755 11.8055 42.1884 11.724 42.1885Z" fill="#F22248"/>
<path d="M11.7249 42.1885C11.6836 42.1885 11.6416 42.1853 11.5989 42.1777C11.3945 42.1446 11.2116 42.0317 11.0904 41.8637C10.9692 41.6958 10.9196 41.4867 10.9526 41.2822C11.2211 39.6283 13.9299 39.1705 14.754 39.0699C15.1842 39.009 15.5702 39.3217 15.6235 39.749C15.6488 39.9546 15.5914 40.1619 15.4639 40.3252C15.3365 40.4886 15.1494 40.5946 14.9438 40.6201C13.7012 40.7742 12.5393 41.2594 12.495 41.5324C12.4652 41.7153 12.3714 41.8817 12.2304 42.0018C12.0893 42.122 11.9102 42.1881 11.7249 42.1885Z" fill="#F22248"/>
</svg>
