<svg width="50" height="50" viewBox="0 0 100 100" fill="none" xmlns="http://www.w3.org/2000/svg">
<g clip-path="url(#clip0_2_87)">
<path d="M99.7263 14.7573L100 10.5641L89.9702 9.92388L89.322 0L85.0843 0.270816L85.8 11.2333L82.7271 14.2737L82.2518 6.99551L78.0139 7.26633L78.7296 18.229L76.1 20.8308C68.019 13.741 57.3951 9.42857 45.7704 9.42857C20.5329 9.42857 0 29.7433 0 54.7139C0 79.6845 20.5329 100 45.7704 100C71.0078 100 91.5386 79.6843 91.5386 54.7139C91.5386 42.7535 86.8261 31.8631 79.1445 23.7598L81.8686 21.0643L92.6561 21.7529L92.9298 17.5596L85.8663 17.1088L88.9388 14.0688L99.7263 14.7573ZM87.2922 54.7139C87.2922 77.3684 68.6649 95.7988 45.7704 95.7988C22.8739 95.7988 4.24633 77.3684 4.24633 54.7139C4.24633 32.0604 22.8739 13.6302 45.7704 13.6302C56.2237 13.6302 65.7861 17.4739 73.0933 23.8059L67.0888 29.7471C61.3294 24.9251 53.8876 22.0124 45.7704 22.0124C27.5453 22.0124 12.7184 36.6824 12.7184 54.7139C12.7184 72.7463 27.5453 87.4165 45.7704 87.4165C63.9935 87.4165 78.8204 72.7465 78.8204 54.7139C78.8204 46.2231 75.532 38.4786 70.1502 32.6592L76.1412 26.7314C83.0549 34.0724 87.2922 43.912 87.2922 54.7139ZM45.7349 56.8165L58.4657 44.22C60.871 47.0641 62.322 50.7237 62.322 54.7137C62.322 63.7443 54.8973 71.0916 45.7704 71.0916C36.6431 71.0916 29.2163 63.7443 29.2163 54.7137C29.2163 45.6831 36.6431 38.3367 45.7704 38.3367C49.3363 38.3367 52.6396 39.4618 55.3447 41.3671L42.7329 53.8459L45.7349 56.8165ZM58.3816 38.3622C54.8806 35.7125 50.5084 34.1355 45.7704 34.1355C34.3002 34.1355 24.97 43.3673 24.97 54.7139C24.97 66.0616 34.3002 75.2933 45.7704 75.2933C57.2382 75.2933 66.5684 66.0616 66.5684 54.7139C66.5684 49.5655 64.6473 44.8529 61.4776 41.2402L67.1457 35.6318C71.76 40.6875 74.5739 47.3814 74.5739 54.7139C74.5739 70.4292 61.6522 83.2151 45.7702 83.2151C29.8857 83.2151 16.9645 70.4294 16.9645 54.7139C16.9645 38.9988 29.8859 26.2139 45.7702 26.2139C52.7167 26.2139 59.0969 28.6598 64.0771 32.7267L58.3816 38.3622Z" fill="#F22248"/>
</g>
<defs>
<clipPath id="clip0_2_87">
<rect width="100" height="100" fill="white"/>
</clipPath>
</defs>
</svg>
