<svg width="562" height="252" viewBox="0 0 562 252" fill="none" xmlns="http://www.w3.org/2000/svg">
<path d="M127.375 60.4545H147.011L154.102 69.3636L166.102 83L181.739 101.909H159.375L148.284 89L140.83 78.2727L127.375 60.4545ZM181.557 48.4545C181.557 58.8182 179.542 67.5606 175.511 74.6818C171.481 81.7727 166.042 87.1515 159.193 90.8182C152.345 94.4545 144.708 96.2727 136.284 96.2727C127.799 96.2727 120.133 94.4394 113.284 90.7727C106.466 87.0758 101.042 81.6818 97.0114 74.5909C93.0114 67.4697 91.0114 58.7576 91.0114 48.4545C91.0114 38.0909 93.0114 29.3636 97.0114 22.2727C101.042 15.1515 106.466 9.77272 113.284 6.13636C120.133 2.46969 127.799 0.63636 136.284 0.63636C144.708 0.63636 152.345 2.46969 159.193 6.13636C166.042 9.77272 171.481 15.1515 175.511 22.2727C179.542 29.3636 181.557 38.0909 181.557 48.4545ZM155.557 48.4545C155.557 42.8788 154.814 38.1818 153.33 34.3636C151.875 30.5151 149.708 27.6061 146.83 25.6364C143.981 23.6364 140.466 22.6364 136.284 22.6364C132.102 22.6364 128.572 23.6364 125.693 25.6364C122.845 27.6061 120.678 30.5151 119.193 34.3636C117.739 38.1818 117.011 42.8788 117.011 48.4545C117.011 54.0303 117.739 58.7424 119.193 62.5909C120.678 66.4091 122.845 69.3182 125.693 71.3182C128.572 73.2879 132.102 74.2727 136.284 74.2727C140.466 74.2727 143.981 73.2879 146.83 71.3182C149.708 69.3182 151.875 66.4091 153.33 62.5909C154.814 58.7424 155.557 54.0303 155.557 48.4545ZM248.466 1.90909H273.739V61.5455C273.739 68.6364 272.042 74.7727 268.648 79.9545C265.284 85.1061 260.587 89.0909 254.557 91.9091C248.527 94.697 241.527 96.0909 233.557 96.0909C225.527 96.0909 218.496 94.697 212.466 91.9091C206.436 89.0909 201.739 85.1061 198.375 79.9545C195.042 74.7727 193.375 68.6364 193.375 61.5455V1.90909H218.648V59.3636C218.648 62.2424 219.284 64.8182 220.557 67.0909C221.83 69.3333 223.587 71.0909 225.83 72.3636C228.102 73.6364 230.678 74.2727 233.557 74.2727C236.466 74.2727 239.042 73.6364 241.284 72.3636C243.527 71.0909 245.284 69.3333 246.557 67.0909C247.83 64.8182 248.466 62.2424 248.466 59.3636V1.90909ZM285.75 95V1.90909H352.841V22.2727H311.023V38.2727H349.386V58.6364H311.023V74.6364H352.659V95H285.75ZM365.375 1.90909H396.83L418.466 54.6364H419.557L441.193 1.90909H472.648V95H447.92V41.1818H447.193L426.466 94.2727H411.557L390.83 40.8182H390.102V95H365.375V1.90909ZM515.102 220.909V218.727C515.102 213.727 515.496 209.742 516.284 206.773C517.072 203.803 518.239 201.424 519.784 199.636C521.33 197.818 523.223 196.182 525.466 194.727C527.405 193.455 529.133 192.227 530.648 191.045C532.193 189.864 533.405 188.606 534.284 187.273C535.193 185.939 535.648 184.424 535.648 182.727C535.648 181.212 535.284 179.879 534.557 178.727C533.83 177.576 532.845 176.682 531.602 176.045C530.36 175.409 528.981 175.091 527.466 175.091C525.83 175.091 524.314 175.47 522.92 176.227C521.557 176.985 520.451 178.03 519.602 179.364C518.784 180.697 518.375 182.242 518.375 184H495.102C495.163 177.333 496.678 171.924 499.648 167.773C502.617 163.591 506.557 160.53 511.466 158.591C516.375 156.621 521.769 155.636 527.648 155.636C534.133 155.636 539.92 156.591 545.011 158.5C550.102 160.379 554.117 163.227 557.057 167.045C559.996 170.833 561.466 175.576 561.466 181.273C561.466 184.939 560.83 188.167 559.557 190.955C558.314 193.712 556.572 196.152 554.33 198.273C552.117 200.364 549.527 202.273 546.557 204C544.375 205.273 542.542 206.591 541.057 207.955C539.572 209.288 538.451 210.818 537.693 212.545C536.936 214.242 536.557 216.303 536.557 218.727V220.909H515.102ZM526.193 251.455C522.678 251.455 519.663 250.227 517.148 247.773C514.663 245.288 513.436 242.273 513.466 238.727C513.436 235.273 514.663 232.318 517.148 229.864C519.663 227.409 522.678 226.182 526.193 226.182C529.527 226.182 532.466 227.409 535.011 229.864C537.587 232.318 538.89 235.273 538.92 238.727C538.89 241.091 538.269 243.242 537.057 245.182C535.875 247.091 534.33 248.621 532.42 249.773C530.511 250.894 528.436 251.455 526.193 251.455Z" fill="white"/>
<path d="M53.0568 186C52.8144 182.97 51.678 180.606 49.6477 178.909C47.6477 177.212 44.6023 176.364 40.5114 176.364C37.9053 176.364 35.7689 176.682 34.1023 177.318C32.4659 177.924 31.2538 178.758 30.4659 179.818C29.678 180.879 29.2689 182.091 29.2386 183.455C29.178 184.576 29.375 185.591 29.8295 186.5C30.3144 187.379 31.072 188.182 32.1023 188.909C33.1326 189.606 34.4508 190.242 36.0568 190.818C37.6629 191.394 39.572 191.909 41.7841 192.364L49.4205 194C54.572 195.091 58.9811 196.53 62.6477 198.318C66.3144 200.106 69.3144 202.212 71.6477 204.636C73.9811 207.03 75.6932 209.727 76.7841 212.727C77.9053 215.727 78.4811 219 78.5114 222.545C78.4811 228.667 76.9508 233.848 73.9205 238.091C70.8902 242.333 66.5568 245.561 60.9205 247.773C55.3144 249.985 48.572 251.091 40.6932 251.091C32.6023 251.091 25.5417 249.894 19.5114 247.5C13.5114 245.106 8.8447 241.424 5.51136 236.455C2.20833 231.455 0.541667 225.061 0.511364 217.273H24.5114C24.6629 220.121 25.375 222.515 26.6477 224.455C27.9205 226.394 29.7083 227.864 32.0114 228.864C34.3447 229.864 37.1174 230.364 40.3295 230.364C43.0265 230.364 45.2841 230.03 47.1023 229.364C48.9205 228.697 50.2992 227.773 51.2386 226.591C52.178 225.409 52.6629 224.061 52.6932 222.545C52.6629 221.121 52.1932 219.879 51.2841 218.818C50.4053 217.727 48.9508 216.758 46.9205 215.909C44.8902 215.03 42.1477 214.212 38.6932 213.455L29.4205 211.455C21.178 209.667 14.678 206.682 9.92045 202.5C5.19318 198.288 2.8447 192.545 2.875 185.273C2.8447 179.364 4.42045 174.197 7.60227 169.773C10.8144 165.318 15.2538 161.848 20.9205 159.364C26.6174 156.879 33.1477 155.636 40.5114 155.636C48.0265 155.636 54.5265 156.894 60.0114 159.409C65.4962 161.924 69.7235 165.47 72.6932 170.045C75.6932 174.591 77.2083 179.909 77.2386 186H53.0568ZM178.307 203.455C178.307 213.818 176.292 222.561 172.261 229.682C168.231 236.773 162.792 242.152 155.943 245.818C149.095 249.455 141.458 251.273 133.034 251.273C124.549 251.273 116.883 249.439 110.034 245.773C103.216 242.076 97.7917 236.682 93.7614 229.591C89.7614 222.47 87.7614 213.758 87.7614 203.455C87.7614 193.091 89.7614 184.364 93.7614 177.273C97.7917 170.152 103.216 164.773 110.034 161.136C116.883 157.47 124.549 155.636 133.034 155.636C141.458 155.636 149.095 157.47 155.943 161.136C162.792 164.773 168.231 170.152 172.261 177.273C176.292 184.364 178.307 193.091 178.307 203.455ZM152.307 203.455C152.307 197.879 151.564 193.182 150.08 189.364C148.625 185.515 146.458 182.606 143.58 180.636C140.731 178.636 137.216 177.636 133.034 177.636C128.852 177.636 125.322 178.636 122.443 180.636C119.595 182.606 117.428 185.515 115.943 189.364C114.489 193.182 113.761 197.879 113.761 203.455C113.761 209.03 114.489 213.742 115.943 217.591C117.428 221.409 119.595 224.318 122.443 226.318C125.322 228.288 128.852 229.273 133.034 229.273C137.216 229.273 140.731 228.288 143.58 226.318C146.458 224.318 148.625 221.409 150.08 217.591C151.564 213.742 152.307 209.03 152.307 203.455ZM190 156.909H221.455L243.091 209.636H244.182L265.818 156.909H297.273V250H272.545V196.182H271.818L251.091 249.273H236.182L215.455 195.818H214.727V250H190V156.909ZM399.432 203.455C399.432 213.818 397.417 222.561 393.386 229.682C389.356 236.773 383.917 242.152 377.068 245.818C370.22 249.455 362.583 251.273 354.159 251.273C345.674 251.273 338.008 249.439 331.159 245.773C324.341 242.076 318.917 236.682 314.886 229.591C310.886 222.47 308.886 213.758 308.886 203.455C308.886 193.091 310.886 184.364 314.886 177.273C318.917 170.152 324.341 164.773 331.159 161.136C338.008 157.47 345.674 155.636 354.159 155.636C362.583 155.636 370.22 157.47 377.068 161.136C383.917 164.773 389.356 170.152 393.386 177.273C397.417 184.364 399.432 193.091 399.432 203.455ZM373.432 203.455C373.432 197.879 372.689 193.182 371.205 189.364C369.75 185.515 367.583 182.606 364.705 180.636C361.856 178.636 358.341 177.636 354.159 177.636C349.977 177.636 346.447 178.636 343.568 180.636C340.72 182.606 338.553 185.515 337.068 189.364C335.614 193.182 334.886 197.879 334.886 203.455C334.886 209.03 335.614 213.742 337.068 217.591C338.553 221.409 340.72 224.318 343.568 226.318C346.447 228.288 349.977 229.273 354.159 229.273C358.341 229.273 361.856 228.288 364.705 226.318C367.583 224.318 369.75 221.409 371.205 217.591C372.689 213.742 373.432 209.03 373.432 203.455ZM461.307 186C461.064 182.97 459.928 180.606 457.898 178.909C455.898 177.212 452.852 176.364 448.761 176.364C446.155 176.364 444.019 176.682 442.352 177.318C440.716 177.924 439.504 178.758 438.716 179.818C437.928 180.879 437.519 182.091 437.489 183.455C437.428 184.576 437.625 185.591 438.08 186.5C438.564 187.379 439.322 188.182 440.352 188.909C441.383 189.606 442.701 190.242 444.307 190.818C445.913 191.394 447.822 191.909 450.034 192.364L457.67 194C462.822 195.091 467.231 196.53 470.898 198.318C474.564 200.106 477.564 202.212 479.898 204.636C482.231 207.03 483.943 209.727 485.034 212.727C486.155 215.727 486.731 219 486.761 222.545C486.731 228.667 485.201 233.848 482.17 238.091C479.14 242.333 474.807 245.561 469.17 247.773C463.564 249.985 456.822 251.091 448.943 251.091C440.852 251.091 433.792 249.894 427.761 247.5C421.761 245.106 417.095 241.424 413.761 236.455C410.458 231.455 408.792 225.061 408.761 217.273H432.761C432.913 220.121 433.625 222.515 434.898 224.455C436.17 226.394 437.958 227.864 440.261 228.864C442.595 229.864 445.367 230.364 448.58 230.364C451.277 230.364 453.534 230.03 455.352 229.364C457.17 228.697 458.549 227.773 459.489 226.591C460.428 225.409 460.913 224.061 460.943 222.545C460.913 221.121 460.443 219.879 459.534 218.818C458.655 217.727 457.201 216.758 455.17 215.909C453.14 215.03 450.398 214.212 446.943 213.455L437.67 211.455C429.428 209.667 422.928 206.682 418.17 202.5C413.443 198.288 411.095 192.545 411.125 185.273C411.095 179.364 412.67 174.197 415.852 169.773C419.064 165.318 423.504 161.848 429.17 159.364C434.867 156.879 441.398 155.636 448.761 155.636C456.277 155.636 462.777 156.894 468.261 159.409C473.746 161.924 477.973 165.47 480.943 170.045C483.943 174.591 485.458 179.909 485.489 186H461.307Z" fill="url(#paint0_linear_2_77)"/>
<defs>
<linearGradient id="paint0_linear_2_77" x1="282" y1="95" x2="282" y2="260.5" gradientUnits="userSpaceOnUse">
<stop offset="0.0495461" stop-color="#F2CB05"/>
<stop offset="1" stop-color="#A65D03"/>
</linearGradient>
</defs>
</svg>
